<?xml version="1.0" encoding="UTF-8"?>
<svg id="Layer_2" data-name="Layer 2" xmlns="http://www.w3.org/2000/svg" viewBox="0 0 362.11 65.68">
  <defs>
    <style>
      .cls-1 {
        fill: #2020ff;
      }

      .cls-2 {
        fill: none;
        stroke: blue;
        stroke-miterlimit: 10;
        stroke-width: 9px;
      }
    </style>
  </defs>
  <g id="Layer_1-2" data-name="Layer 1">
    <g>
      <polygon class="cls-2" points="202.72 10.5 179.12 60.25 226.32 60.25 202.72 10.5"/>
      <polygon class="cls-2" points="30.72 10.75 7.12 60.49 54.32 60.49 30.72 10.75"/>
      <path class="cls-1" d="M75.51,63.13c-2.08-.64-3.84-1.6-5.29-2.87-1.44-1.27-2.57-2.78-3.37-4.54-.8-1.76-1.22-3.81-1.26-6.15l-.05-3.73h11.17l.05,3.64c0,1.4,.21,2.58,.63,3.56,.42,.98,1.07,1.72,1.94,2.24,.88,.52,1.92,.77,3.12,.77,1.9,0,3.3-.57,4.22-1.7s1.37-2.74,1.37-4.83V2.99h11.34V49.24c0,3.15-.67,5.83-2,8.04-1.33,2.2-3.26,3.89-5.78,5.06-2.52,1.17-5.57,1.76-9.15,1.76-2.56,0-4.87-.32-6.96-.96Z"/>
      <path class="cls-1" d="M112.14,2.99h15.61l10.3,48.67h.22L148.62,2.99h15.61v62.04h-10.08l.05-48.63h-5.2l7.78-12.21-13.31,60.84h-10.46L119.64,4.2l7.78,12.21h-5.15l.05,48.63h-10.19V2.99Z"/>
      <path class="cls-1" d="M241.21,3.93h11.39V57.72h19.01v7.96h-30.4V3.93Z"/>
      <g>
        <path class="cls-1" d="M332.86,2.99c-16.13,0-29.25,13.12-29.25,29.25s13.12,29.25,29.25,29.25,29.25-13.12,29.25-29.25-13.12-29.25-29.25-29.25Zm0,52.43c-12.78,0-23.18-10.4-23.18-23.18s10.4-23.18,23.18-23.18,23.18,10.4,23.18,23.18-10.4,23.18-23.18,23.18Z"/>
        <path class="cls-1" d="M350.77,23.84c-.08-1.67-2.68-1.68-2.6,0,.15,3.14,.33,6.36-.38,9.45-.59,2.53-1.78,4.91-3.47,6.88-3.65,4.26-9.11,6.3-14.66,5.92-1.67-.11-1.66,2.49,0,2.6,6.16,.42,12.45-1.95,16.5-6.68,1.89-2.21,3.32-4.81,4.04-7.63,.88-3.44,.74-7.03,.57-10.54Z"/>
        <path class="cls-1" d="M335.49,36.04c.06-.05,.16-.18,.12-.18l-.2,.21,.08-.03Z"/>
        <path class="cls-1" d="M335.56,35.66c.03-.06,.09-.11,.12-.15-.11,.09-.3,.25-.45,.47,.2-.19,.13-.1,.37-.33,.04,0-.02,.1-.09,.18,.05-.05,0,.08,.12-.05,.11-.19,.08-.23-.07-.12Z"/>
        <path class="cls-1" d="M333.75,33.29c-.06,.07-.02,.07-.02,.1l.02-.1Z"/>
        <path class="cls-1" d="M334.94,35.8s.04-.02,.07-.04c-.01,0-.03,0-.04,0l-.03,.03Z"/>
        <path class="cls-1" d="M334.5,33.69h.01s.05-.04,.08-.08l-.09,.08Z"/>
        <polygon class="cls-1" points="319.05 24.89 319.06 24.88 319.12 24.76 319.05 24.89"/>
        <path class="cls-1" d="M332.09,31.2h0s.02,0,0,0Z"/>
        <path class="cls-1" d="M327.46,28.95c.04-.09,.27-.28,.28-.44-.07,.22-.23,.19-.28,.44Z"/>
        <path class="cls-1" d="M330.36,30.58s.02-.05-.02-.04c0,.01,0,.02-.01,.03,.02-.02,.04-.03,.03,0Z"/>
        <path class="cls-1" d="M329.93,30.3s-.01,.03-.02,.05h.02s0-.05,0-.05Z"/>
        <path class="cls-1" d="M320.65,26.63c-.07,.16-.16,.18-.08,.21,.02-.07,.05-.14,.08-.21Z"/>
        <path class="cls-1" d="M334.95,35.77h.02s.05-.05,.06-.07c-.04,.05-.06,.07-.08,.07Z"/>
        <path class="cls-1" d="M328.99,31.98c.04-.08,.05-.13,.06-.16-.01,.01-.02,.03-.04,.05v.12Z"/>
        <path class="cls-1" d="M328.58,31.41s-.09,.12-.11,.11c-.08,.2,.13,.1,.23-.04,.02,.03-.08,.13-.11,.22-.03,.13,.24-.16,.15,.03-.02,.03-.05,.05-.06,.06,.08-.07,.1,.1,.21-.12,0,.14,.19,0,.16,.15,.19-.2,.04,.18,.27-.12-.22,.32-.06,.34,.09,.22-.08,.09-.03,.13-.14,.25,.05,.03,.14,0,.24-.17-.18,.45,.39-.19,.1,.34,.26-.07,.48-.1,.66-.09-.23,.32-.16-.07-.39,.27,.21-.05,.48-.27,.54-.11,0,.07-.12,.13-.16,.17,.21-.05,.21,.2,.44,.1-.02,.03-.06,.05-.08,.07,.03,0,.02,.08,.12-.06l-.05,.02c.12-.23,.4-.38,.48-.49-.33,.39,.03,.18-.4,.66,.03-.02,.1-.07,.17-.17,0,.04-.03,.1-.13,.2,.13-.02,.22-.2,.28-.14-.05,.07-.08,.09-.15,.16,.13-.11,.27-.22,.28-.12-.03,.04-.07,.1-.08,.09,.11,.05,.43-.24,.45-.03-.25,.28-.03,.13-.22,.39l.12-.04,.07-.14s.23-.11,.21,0l-.12,.08,.13,.02,.02-.14c.15-.1,.24-.33,.25-.21-.03,.02,.05,.04-.04,.21h0c.09-.06,.18-.13,.17-.04-.05,.09-.22,.28-.25,.34,.19-.2,.16,.03,.37-.18-.05,.05-.15,.18-.17,.21l.15-.16c-.02,.07-.03,.1-.12,.21,.05,.09,.22-.35,.2-.14-.02,0-.03,.04-.07,.05,.03,.14,.25,0,.26,.15-.17,.28-.12,.01-.25,.25,.15,.04,.47-.14,.53,0v-.04c.29-.36-.06,.24,.13,.11-.03,.02-.17,.19-.14,.15,.03,.12,.22,.03,.42,0l-.09,.08c-.02,.12,.08,.14,.09,.21,.09-.08,.1-.05,.19-.2-.27,.64,.5-.07,.28,.47-.02-.01-.1,.05-.09,.06h.18c.11-.16,.06-.11,.13-.25,.09-.08,.17-.13,.2-.11-.13,.07-.2,.25-.25,.36,.03-.05,.08-.1,.12-.15-.16,.33,.26-.31,.19-.06l-.07,.08c.06-.02,.17-.11,.19-.06-.13,.19-.1,.06-.22,.21,.05,.02,.36-.28,.26-.06-.06,.04-.09,.02-.14,.05-.13,.25-.08,.2-.07,.26h0s0,.15,0,.15l.03-.07c.43-.43,.18,0,.5-.25-.31,.24-.15,.16-.32,.36-.03,.07-.05,.16-.1,.21,.17-.14-.05,.18,.2-.03-.05,.07,.03,.04-.11,.2,.09-.02,.08-.12,.15-.2,.25-.17-.06,.4,.29,.18,.19-.06,.38-.27,.55-.31-.06,.13-.22,.22-.22,.22-.04,.13,.01,.14,.11,.1-.06,.05-.09,.11-.13,.19,.05,0,.22-.22,.18-.09-.07,.07-.17,.18-.25,.24,.09-.03,.23-.12,.31-.15-.08,.12-.17,.15-.24,.22,.09-.01,.2,0,.36-.18l.02-.09s-.12,.16-.16,.18c-.15,.11,0-.11,.05-.18l.06-.02c.29-.41-.17-.03-.2-.1l.25-.26-.25,.18c.05-.08,.17-.25,.23-.26,.07-.17-.12,.07-.03-.11,.02-.03,.03-.04,.04-.05l-.11,.05c.06-.05,.15-.2,.15-.14,.06-.22-.29,.11-.14-.12h.02c-.18,0-.18,.19-.45,.37l.36-.55-.18,.2s-.01-.05,.06-.13c-.15,.11-.07,.1-.2,.21,.1-.23-.21-.02,.04-.36-.14,.14-.05,.16-.19,.23,.27-.37-.11,.01-.03-.19,.16-.17,.13-.04,.21-.24-.27,.29-.04-.14-.12-.11-.06,.07-.1,.1-.12,.11,.07-.07,.1-.1,.12-.11,.03-.04,.06-.08,.1-.14,0-.02-.16,.17-.23,.25-.07,.02-.08-.07-.17-.04,.07-.08-.02-.23,0-.37l.03-.04c-.21,.24-.23,.14-.32,.16,.12-.15,.17-.2,.25-.25l-.04-.03c-.07,.07-.12,.1-.17,.11l.16-.18c-.07-.04-.29,.13-.26-.05-.14,.17-.32,.53-.49,.59,.07-.1,.19-.26,.24-.28-.02,0-.09,.06-.07,0l.16-.14c.02-.1-.12,.12-.14,.08,.11-.13,.05-.11,.14-.22,.02,0-.02,.07,.03,.03-.01-.05,.01-.16,.08-.27-.06,.08-.14,.18-.18,.18-.07-.03,.11-.18,.13-.27-.09,.08-.05-.04-.21,.16-.02-.01,.05-.11,.09-.17-.1,.07-.16-.08-.29,.16v.02s0,0-.01,0c-.25,.13-.12-.27-.28-.26l.05-.07c-.12,.03-.16-.05-.32,.06-.02-.01,.05-.16,.12-.23-.08,.02-.15,.09-.13-.07,.14-.09,.06-.12,.11-.05-.01-.1,.05-.22-.15-.08,.15-.16,.12-.25,.05-.22l-.05,.16c-.05,0-.07-.03-.08-.07l.19-.22c.09-.37-.57,.32-.32-.22-.15,.14-.02,.16-.19,.33-.03-.07,.16-.45,.14-.46,.02-.19-.32,.29-.34,.14-.05,.09-.2,.32-.32,.35-.03-.07,.19-.4,.27-.44,.02,0,0,.03-.02,.06,.04-.02,.09-.04,.13-.14l-.07,.08c.03-.11-.05-.15,.07-.28-.1,.05-.12,.12-.12,.19,.02-.17-.11-.09-.12-.22-.02,.05-.08,.16-.09,.15-.03-.18-.16,.12-.26,.11,.05-.16,.23-.29,.08-.24,.02-.12,.15-.23,.22-.28-.18,.11-.05-.2-.07-.25l.08-.04c-.05,.02-.07,.01-.08,0l-.1,.18s-.02-.06,.03-.13c-.1,.09-.18,.29-.33,.41,.03-.1-.15,.03,0-.2,.03,.14,.15-.23,.25-.21-.03,.02-.05,0-.05-.04,.01-.03,.04-.04,.05-.05,.06-.26-.22,.22-.3,.16,.1-.12,.15-.25,.12-.24,.03,.03-.13,.22-.23,.29,.01-.14-.11,.03-.13,0v.07c-.1,.12-.12,.08-.18,.09,.07-.1,.08-.04,.1-.1-.2,.19,.06-.3-.1-.19,.03-.11,.16-.24,.18-.31-.18,.12,.05-.22-.12-.14-.1,.18-.07,.14-.23,.27l.2-.04-.25,.19s.15-.05,.15-.01c-.13,.11-.1,.07-.18,.23,.13-.29-.2,.08-.14-.13l.29-.42c.05-.25-.3,.11-.34-.07l-.02,.1c-.13,.16-.08-.02-.17,.02,.1-.14,.11-.21,.16-.3-.07,.11-.07-.07-.28,.21l.08-.22c-.04-.14-.38,.33-.43,.23,.13-.14,.16-.26,.29-.33-.03-.02-.04-.06-.1,.03,.04-.1-.21,.14-.14-.02-.05,.05-.16,.2-.18,.17,.02-.03,.05-.07,.05-.07-.05,.07-.11,.06-.19,.24,.21-.5-.27-.13-.09-.56-.09,0-.2,0-.26-.03,.03-.04,.05-.07,.05-.05,0-.18-.32,.38-.31,.17,.11-.26,.13-.09,.16-.2,.3-.48-.15,0-.03-.32l.03-.02c.06-.19-.23,.1-.28,.02,0,0,.03-.04,.05-.07-.21,.21-.36,.22-.47,.24,.14-.17,.1-.08,.21-.27-.05,0-.19,.31-.29,.32,.04-.11,.06-.23,.18-.44l.07,.03c.14-.28-.09-.04-.09-.11l.08-.11c-.12-.02-.3,.26-.39,.18l-.05,.09c-.24,.25,.06-.19-.13-.01l.17-.3c-.08,.05-.31,.2-.41,.21,.17-.19,.32-.25,.45-.35-.04-.03-.14-.06-.25,.07,.03-.02,.1-.08,.08-.02-.19,.2-.32,.27-.39,.22,.37-.55-.1-.26,.12-.73-.26,.13-.2-.25-.37-.31-.22,.47-.05-.01-.32,.44-.05,0-.06,0-.05-.04,0,0,0,0,0,0h0s.06-.33,.06-.33c.06-.15,.09-.08,.15-.18-.06-.08,.09-.21,.11-.36-.09,.17-.17,.21-.18,.13l-.07,.25c-.26,.17,.14-.44-.12-.27l.12-.12c-.11,.05-.2-.13-.48,.2,.02-.06,.08-.19,.13-.21-.1-.14-.53,.21-.5-.08l.08-.1s-.17,.18-.13,.05c.03-.05,.08-.1,.07-.12-.04,.03-.18,.15-.18,.07l.1-.11c-.04-.22-.38,.18-.54,.2,.19-.33,.15-.5,.13-.58l.03-.05c-.13-.13-.42,.12-.64,.17,.12-.41-.21-.32-.24-.61-.01,.07-.15,.26-.2,.27,0-.09-.22,.18-.04-.12h0c.14-.3,.03-.26-.02-.3l-.23,.39c.19-.66-.49,0-.28-.56-.09,.08-.13,.06-.22,.14l.12-.21c-.06-.11-.1-.16-.24-.17l.11-.14c-.06-.05-.42,.57-.49,.55l.16-.33c-.12-.06-.08-.4-.36-.17,.03-.05,.08-.14,.11-.14-.05-.04-.09-.33-.31,.12,.15-.29-.1-.09-.24,0l.12-.21c-.2,.24-.24,.32-.35,.35,0-.03,.04-.11,.06-.13-.03-.05-.14,.18-.15,.04l.1-.12c-.05-.05-.09,.03-.2,.17-.08,.07-.08-.11,0-.31-.07,.11-.19,.25-.19,.18,.03-.08,.07-.11,.09-.13-.02-.2-.28,.17-.24-.08,.04-.07,.05-.11,.05-.13,.08,.05,.14,.09,.12,.1,.1-.2,.06-.27,.25-.51-.13,.12-.39,.4-.4,.27,0-.02,.02-.04,.03-.07l.02-.02s-.03-.02-.06,.01c0-.04,0-.07-.02-.09,.08-.17-.03-.13-.06-.15-.11,.22-.13,.16-.19,.36,0-.02,.02-.02,.05-.02,0,0,.02,0,.03-.02v.02s.04,.01,.08,.03c-.08,.1-.16,.18-.13,.04-.09,.13-.18,.26-.23,.33,.11-.32,.11-.53,.19-.72-.16,.07-.27-.04-.54,.34-.05,.04,.03-.13,.05-.2,.04-.03,.05-.02,.09-.07-.11,.08-.19-.04-.34,.23,0-.16,.17-.24,.05-.25l.06-.08c.04-.55-.68,.58-.6-.12,0,.04,0,.06-.02,.11-.12-.38-.62,0-.66-.53-.03-.12-.12,.06-.23,.18l.1-.24-.2,.24c-.2,.15,.1-.66-.21-.35l-.06,.17c-.03-.05-.19,.02-.1-.15-.02,.03-.09,.16-.07,.07l.06-.12-.21,.16c-.05-.13,.24-.49,.13-.57-.07,.02-.3,.3-.32,.39,.02,.02,.01,.1-.04,.23l-.07,.04c-.18,.36-.38,.72-.4,1.03l.18-.19-.06,.19-.07-.02c-.04,.18,.05,.05,.12-.04-.04,.1-.06,.17-.06,.21l.24-.31c-.06,.15-.17,.27-.15,.37,.11-.15,.12-.34,.22-.42-.04,.18-.12,.31,0,.19-.04,.1-.08,.15-.11,.19,.09-.1,.12,0,.23-.19-.06,.22,.15,0-.02,.35,.05-.08,.19-.24,.23-.24-.26,.38,.11,.08-.11,.52,.22-.35,.24-.09,.42-.25-.02,.03-.06,.08-.05,.06,.03,.05-.01,.17-.02,.25,.15-.3,.26-.34,.39-.51-.09,.32-.21,.34-.33,.63,.12-.25,.22-.2,.3-.42-.05,.2,0,.11-.11,.37,.19-.38,.07-.05,.22-.26-.03,.22-.16,.36-.04,.28-.03,.13-.15,.24-.15,.24,.06,.04,.17-.27,.27-.42,.12-.04-.07,.23-.11,.39,.09-.05,.26-.3,.29-.27-.02,.05-.02,.07-.06,.12,.17-.2,.16,.07,.37-.19,0,.03-.02,.05-.03,.08,.06-.15,.13-.3,.19-.4,.03,.01,.15-.15,.07,.04-.02-.01-.06,.06-.09,.11l.07-.07c-.11,.28-.09,.07-.19,.27,.11-.06,.29-.24,.3-.14-.12,.27-.16,.03-.21,.3l-.02-.14c-.15,.44-.03-.05-.2,.42,.06,.12,.18-.08,.23,.04,.1-.13,.1-.22,.2-.35,.27-.19-.23,.72,.05,.42,.11-.16,.29-.49,.28-.28l-.18,.28c.08,.08,.27-.4,.27-.15-.08,.11-.12,.06-.13,.1-.06,.27,.13-.14,.18-.12l-.12,.27c.12,0,.33-.12,.46-.11-.05,.07-.11,.15-.12,.24,.21-.06,.28,.18,.33,.41l.17-.2s-.03,.11-.07,.15c0,.11,.08-.14,.15-.22,.04,0-.03,.15-.08,.21,.19-.14,.48-.27,.45,.02l-.05,.06c.03,.13,.33-.41,.29-.17l-.03,.03c.11,.18,.4,.08,.34,.48,.2-.31,.08,.23,.34-.21-.03,.27-.1,.34-.05,.56,.02,.04,.21-.25,.28-.27l-.13,.23,.19-.21-.12,.3,.07-.04s.02-.12,.06-.19c.12-.07,.06,.25,0,.37l.26-.11c-.06,.09-.1,.11-.15,.16,.21-.19-.12,.25,.07,.08,.02-.06,.08-.14,.11-.18-.04,.16,.04,.21,.13,.19l-.1,.15c.09,.1,.27,.06,.39,.13,0-.1,.17-.37,.22-.38l-.13,.25c.11-.14,.02-.11,.17-.27,.03,.05-.13,.3-.2,.36l.1-.05c-.04,.07-.07,.11-.13,.2,.11-.14-.05,.3,.14,.06l-.04,.07c.12,.07,.23,.02,.33,.07,.13-.21,.14-.14,.27-.29,.03,.11,.02,.32,.11,.36,.12-.07,.12-.17,.23-.27-.11,.19-.01,.23-.14,.34,.12,.03,.16,.04,.38-.03,.03-.09,.04-.13,.08-.19,.04-.02,0,.11-.05,.2l-.02,.02c.32-.19,0,.76,.37,.44l-.02,.02,.25-.13c.04,.07-.12,.12-.15,.26,.33-.23,.18,.17,.42,.03-.26,.61,.32,.15,.21,.57l.08-.13c.11-.11-.01,.1,0,.14,.06-.1,.04-.14,.11-.2,.35,0,.39,.52,.56,.79,.07,.09,.49-.64,.4-.25l-.19,.22c.37-.17,.37,.25,.71,.13Zm-6.75-4.35s-.03,0-.04,0c0,0,.02,0,.04,0h0Zm.14,.07s-.03-.03-.05-.04c.03-.08,.08-.15,.09-.14-.03,.05-.02,.11-.04,.18Zm.45-1.57l-.02,.03s.05-.08,.06-.1c.04-.02,.02,.03,0,.07-.01,0-.03,0-.05,0Z"/>
        <path class="cls-1" d="M323.08,26.24s0,0,0,.01c0-.02,0-.02,0-.01Z"/>
        <path class="cls-1" d="M322.28,25.74s-.01,.01-.02,.01c0,.02,0,.04-.01,.06l.04-.06h-.01Z"/>
        <path class="cls-1" d="M333.73,33.43s0,.02-.02,.03c0-.01,0-.02,.01-.03h0Z"/>
        <polygon class="cls-1" points="323.57 28.52 323.6 28.46 323.56 28.5 323.57 28.52"/>
        <path class="cls-1" d="M334.26,35.14s.05-.06,.07-.08h0s-.07,.08-.07,.08Z"/>
        <path class="cls-1" d="M330.61,32.75s0,0-.01,0c-.05,.02-.02,.02,.01,0Z"/>
        <path class="cls-1" d="M332,33.05s-.07,.05-.1,.07c0,.03,.02,.04,.1-.07Z"/>
        <polygon class="cls-1" points="329.26 32.17 329.26 32.16 329.26 32.16 329.26 32.17"/>
        <path class="cls-1" d="M331.85,33.08c-.01,.05,.01,.06,.05,.04,0-.02,0-.06-.05-.04Z"/>
        <path class="cls-1" d="M335.15,35.96h-.03s0,.03,0,.03c.01-.01,.02-.02,.03-.03Z"/>
        <path class="cls-1" d="M335.24,35.92l-.06,.03s.01,.02,.06-.03Z"/>
        <path class="cls-1" d="M334.8,35.61s-.07,.19,0,.17l.05-.05c-.1,.09,.07-.22-.04-.12Z"/>
        <path class="cls-1" d="M335.13,34.46l.03,.11c.05-.08,.11-.2,.16-.19,.08-.29-.11,.18-.18,.07Z"/>
        <path class="cls-1" d="M335.11,34.03c-.08,.05-.1,.06-.12,.15,.07,0,.08-.11,.12-.15Z"/>
        <path class="cls-1" d="M333.33,32.89l.14-.17c-.05,0-.05,.07-.14,.17Z"/>
        <polygon class="cls-1" points="332.32 33.56 332.27 33.7 332.4 33.54 332.32 33.56"/>
        <polygon class="cls-1" points="333.1 32.14 333 32.17 333.07 32.16 333.1 32.14"/>
        <path class="cls-1" d="M330.12,30.17l-.14,.23s.23-.28,.14-.23Z"/>
        <path class="cls-1" d="M328.69,29.56c.06-.12,.07-.22-.02-.12,.02,.03-.01,.14,.02,.12Z"/>
        <polygon class="cls-1" points="325.06 26.74 324.98 26.78 324.99 26.8 325.06 26.74"/>
        <path class="cls-1" d="M340.17,25.09c.07,0,.24-.03,.2-.05l-.29,.03,.08,.02Z"/>
        <path class="cls-1" d="M340.03,24.95c.27-.04,.16,0,.49-.04,.04,.02-.08,.05-.19,.07,.07,0-.06,.04,.12,.02,.21-.06,.21-.11,.03-.11,.06-.02,.14-.03,.19-.04-.14,0-.39,.03-.64,.1Z"/>
        <path class="cls-1" d="M339.86,22.52c-.07,.07-.03,.06-.03,.09l.03-.09Z"/>
        <path class="cls-1" d="M339.93,24.76s.04,0,.08,0c-.01,0-.02,0-.03,0h-.04Z"/>
        <path class="cls-1" d="M340.47,22.96h0s.06-.03,.1-.05l-.11,.05Z"/>
        <polygon class="cls-1" points="327.53 16.21 327.54 16.2 327.6 16.07 327.53 16.21"/>
        <path class="cls-1" d="M338.49,20.63h0s.02-.01,0,0Z"/>
        <path class="cls-1" d="M334.55,19.13c.04-.09,.24-.3,.26-.45-.06,.21-.2,.21-.26,.45Z"/>
        <path class="cls-1" d="M337,20.29s.01-.05-.01-.03c0,.01,0,.02-.01,.03,.02-.03,.04-.04,.03,0Z"/>
        <path class="cls-1" d="M336.64,20.08s-.01,.03-.02,.05h.02s0-.05,0-.05Z"/>
        <path class="cls-1" d="M328.82,17.72c-.07,.16-.15,.19-.07,.21,.02-.07,.05-.14,.07-.21Z"/>
        <path class="cls-1" d="M339.96,24.74s0,0,.02,0c.03-.01,.07-.02,.09-.03-.06,.02-.09,.02-.1,.02Z"/>
        <path class="cls-1" d="M335.78,21.8c.03-.08,.05-.13,.05-.16-.01,.02-.02,.03-.04,.05l-.02,.11Z"/>
        <path class="cls-1" d="M330.9,17.08s0,0,0,.01c0-.02,0-.02,0-.01Z"/>
        <path class="cls-1" d="M327.32,17.03l-.06,.19h-.06c-.04,.17,.04,.03,.1-.06-.04,.1-.06,.17-.06,.21l.21-.33c-.05,.15-.15,.28-.14,.37,.1-.15,.11-.34,.2-.43-.04,.18-.11,.31-.01,.19-.04,.1-.07,.16-.1,.19,.08-.1,.1-.01,.2-.2-.06,.22,.13-.01-.03,.34,.05-.08,.17-.25,.21-.26-.23,.4,.09,.07-.12,.51,.2-.36,.21-.11,.37-.29-.02,.03-.05,.09-.05,.06,.02,.05-.02,.17-.02,.25,.14-.31,.23-.35,.35-.53-.09,.32-.19,.35-.3,.65,.11-.25,.19-.22,.27-.43-.05,.2,0,.1-.11,.37,.18-.39,.06-.05,.2-.28-.03,.21-.15,.37-.04,.28-.03,.13-.14,.25-.14,.25,.05,.03,.15-.27,.24-.44,.1-.05-.06,.23-.11,.39,.08-.06,.23-.31,.25-.29-.02,.05-.02,.07-.06,.13,.15-.21,.14,.05,.32-.22,0,.03-.02,.05-.03,.08,.06-.15,.12-.3,.17-.4,.03,0,.13-.16,.05,.03-.01-.01-.05,.06-.08,.12l.06-.07c-.1,.28-.08,.08-.17,.28,.09-.07,.26-.27,.26-.17-.11,.27-.13,.05-.19,.31l-.02-.13c-.14,.44-.02-.05-.19,.43,.05,.11,.15-.1,.2,.02,.09-.14,.09-.22,.18-.36,.24-.22-.22,.71,.03,.4,.1-.17,.27-.5,.24-.3l-.16,.29c.06,.07,.24-.41,.23-.17-.07,.11-.11,.07-.11,.11-.06,.26,.12-.15,.16-.14l-.12,.27c.1,0,.28-.15,.4-.16-.04,.08-.1,.15-.11,.24,.18-.08,.23,.15,.27,.36l.15-.21s-.03,.11-.06,.15c0,.11,.07-.14,.14-.23,.03,0-.03,.15-.08,.21,.17-.16,.42-.32,.38-.03l-.05,.06c.02,.12,.3-.44,.25-.19l-.03,.04c.09,.17,.34,.03,.27,.42,.18-.32,.06,.21,.3-.24-.04,.27-.1,.34-.07,.54,.02,.04,.19-.26,.24-.29l-.12,.24,.17-.23-.12,.3,.06-.04s.03-.12,.06-.19c.11-.08,.04,.23-.02,.35l.23-.14c-.05,.09-.09,.12-.14,.17,.19-.21-.11,.26,.06,.06,.02-.06,.08-.14,.1-.19-.04,.16,.02,.2,.11,.16l-.09,.16c.07,.09,.23,.02,.33,.07,0-.1,.16-.37,.2-.39l-.12,.26c.1-.15,.02-.11,.15-.28,.02,.05-.12,.3-.19,.37l.09-.06c-.04,.08-.07,.11-.12,.2,.1-.15-.05,.29,.12,.04l-.04,.08c.1,.06,.19,0,.28,.02,.11-.22,.12-.15,.24-.31,.03,.1,0,.31,.09,.33,.11-.08,.11-.17,.2-.29-.1,.2-.02,.22-.13,.34,.11,.01,.13,.02,.33-.08,.03-.09,.04-.13,.08-.19,.04-.02,0,.11-.05,.2l-.02,.02c.28-.23-.02,.72,.3,.37l-.02,.02,.22-.16c.03,.06-.11,.13-.14,.27,.29-.26,.15,.14,.36-.02-.25,.61,.27,.1,.16,.51l.07-.14c.1-.12-.01,.09-.01,.13,.06-.11,.04-.14,.1-.2,.3-.05,.32,.44,.46,.68,.06,.08,.44-.67,.35-.29l-.17,.23c.33-.21,.31,.19,.61,.03-.04,.05-.09,.13-.1,.12-.07,.2,.11,.08,.2-.07,.01,.03-.07,.14-.1,.22-.03,.12,.21-.18,.13,0-.01,.03-.04,.05-.06,.06,.07-.07,.08,.08,.19-.14,0,.13,.16-.03,.14,.12,.17-.21,.03,.17,.23-.15-.2,.33-.06,.33,.07,.19-.07,.09-.03,.12-.13,.26,.04,.02,.12-.02,.21-.2-.17,.45,.35-.23,.08,.31,.23-.11,.42-.16,.57-.17-.21,.33-.14-.04-.35,.31,.19-.07,.42-.32,.47-.18,0,.06-.1,.14-.15,.19,.19-.07,.18,.15,.38,.03-.02,.03-.05,.06-.08,.08,.02,0,.01,.07,.1-.08l-.04,.03c.11-.24,.36-.41,.43-.53-.3,.41,.02,.16-.37,.68,.03-.02,.09-.08,.15-.19,0,.04-.03,.1-.12,.21,.11-.04,.19-.22,.25-.18-.05,.07-.08,.09-.14,.18,.12-.12,.24-.25,.25-.16-.03,.04-.06,.1-.08,.09,.09,.03,.38-.28,.38-.09-.23,.29-.04,.12-.21,.4l.1-.05,.07-.14s.21-.14,.18-.03l-.11,.09h.11s.03-.13,.03-.13c.14-.11,.23-.34,.23-.23-.03,.02,.04,.03-.05,.2h0c.08-.07,.16-.14,.15-.05-.05,.09-.21,.29-.25,.35,.18-.21,.14,0,.33-.21-.05,.05-.15,.19-.17,.22l.15-.17c-.02,.07-.04,.1-.12,.21,.03,.07,.23-.34,.19-.15-.02,.01-.03,.04-.06,.06,0,.12,.21-.01,.21,.12-.18,.27-.1,.02-.25,.25,.12,.02,.42-.17,.45-.04v-.04c.32-.34-.08,.22,.1,.09-.03,.02-.18,.18-.14,.14,0,.1,.18,0,.36-.02l-.09,.08c-.04,.11,.04,.12,.03,.19,.09-.07,.1-.04,.21-.17-.4,.56,.45-.05,.11,.42-.01-.01-.1,.04-.09,.05h.15c.15-.13,.09-.08,.19-.2,.1-.07,.19-.1,.21-.08-.14,.04-.25,.2-.33,.29,.05-.04,.1-.08,.15-.12-.25,.26,.32-.24,.18-.03l-.09,.06c.06,0,.19-.07,.18-.03-.18,.15-.11,.04-.26,.15,.03,.02,.41-.19,.24-.02-.06,.02-.08,0-.14,.02-.2,.19-.14,.15-.16,.2h0s-.07,.12-.07,.12l.05-.05c.53-.29,.14,.03,.52-.12-.36,.13-.19,.1-.42,.23-.05,.05-.11,.11-.18,.15,.2-.08-.12,.12,.17,0-.07,.04,0,.03-.18,.13,.08,0,.13-.08,.22-.12,.28-.07-.25,.27,.14,.19,.18,0,.45-.08,.61-.05-.12,.07-.3,.09-.3,.09-.1,.08-.07,.1,.03,.11-.07,.02-.13,.04-.22,.08,.03,.02,.3-.07,.19,0-.09,.02-.24,.05-.33,.07,.08,0,.24,0,.33,.01-.14,.05-.22,.04-.32,.05,.08,.02,.16,.06,.38,.02l.08-.05s-.19,.05-.24,.05c-.18,.01,.07-.07,.15-.09h.06c.47-.14-.11-.08-.1-.13l.35-.08-.3,.03c.09-.04,.27-.11,.33-.1,.16-.1-.13,0,.04-.1,.03-.01,.04-.02,.06-.02h-.12c.07-.02,.24-.1,.2-.06,.16-.15-.3-.03-.06-.16h.02c-.16-.06-.25,.09-.56,.14l.57-.32-.24,.1s.01-.04,.11-.09c-.18,.04-.1,.06-.27,.11,.19-.16-.17-.08,.2-.29-.19,.08-.11,.12-.26,.14,.39-.24-.1-.02,.05-.16,.21-.11,.13,0,.28-.15-.36,.18,.02-.13-.07-.13-.08,.05-.12,.06-.15,.07,.09-.05,.13-.07,.15-.07,.04-.03,.08-.06,.14-.1,0-.02-.2,.11-.29,.16-.07,0-.05-.08-.14-.08,.09-.06,.06-.21,.11-.34l.04-.03c-.26,.18-.26,.09-.34,.09,.15-.12,.21-.16,.3-.19l-.03-.04c-.09,.06-.14,.08-.19,.08l.19-.14c-.06-.04-.3,.08-.23-.09-.17,.15-.42,.46-.58,.5,.09-.08,.24-.22,.29-.24-.02,0-.09,.05-.06,0l.17-.11c.04-.09-.14,.1-.14,.07,.13-.12,.08-.1,.18-.19,.02,0-.03,.07,.02,.03,0-.05,.05-.14,.13-.24-.07,.07-.17,.16-.2,.15-.05-.04,.13-.16,.17-.25-.1,.07-.04-.05-.22,.13-.01-.01,.07-.1,.11-.15-.1,.06-.14-.09-.3,.13v.02s-.01,0-.02,0c-.25,.11-.06-.26-.21-.25l.06-.06c-.11,.03-.14-.05-.3,.06-.01-.01,.07-.15,.14-.22-.08,.02-.14,.09-.11-.06,.13-.09,.07-.11,.11-.05,0-.1,.07-.21-.13-.07,.15-.16,.13-.25,.07-.21l-.06,.15s-.06-.03-.07-.06l.19-.22c.1-.36-.54,.33-.28-.19-.15,.14-.03,.16-.19,.33-.02-.06,.17-.44,.15-.45,.02-.18-.31,.3-.31,.16-.05,.09-.2,.32-.3,.37-.02-.06,.19-.4,.26-.44,.02,0,0,.03-.02,.06,.04-.02,.08-.04,.13-.15l-.06,.08c.04-.1-.04-.14,.07-.27-.09,.06-.11,.13-.11,.19,.02-.17-.09-.07-.1-.2-.02,.05-.08,.16-.09,.15-.02-.17-.15,.14-.24,.13,.05-.15,.22-.3,.08-.24,.02-.11,.14-.23,.2-.29-.17,.13-.04-.18-.06-.23l.08-.05s-.06,.02-.08,0l-.09,.18s-.01-.05,.03-.12c-.09,.1-.17,.3-.3,.43,.03-.1-.13,.05,0-.19,.03,.13,.14-.24,.23-.23-.03,.02-.04,0-.04-.03,.01-.03,.03-.05,.05-.06,.06-.25-.2,.24-.27,.19,.09-.12,.14-.26,.11-.24,.03,.02-.12,.23-.21,.31,.02-.13-.1,.04-.12,.02v.07c-.09,.12-.1,.09-.16,.11,.06-.1,.07-.05,.09-.1-.18,.21,.06-.29-.08-.17,.03-.1,.15-.25,.17-.32-.16,.13,.05-.22-.1-.11-.09,.19-.06,.15-.21,.29l.18-.06-.22,.22s.13-.07,.13-.03c-.12,.13-.09,.08-.16,.24,.12-.29-.18,.1-.11-.1l.27-.44c.05-.24-.26,.15-.29-.02l-.02,.09c-.12,.17-.07-.01-.14,.04,.09-.14,.1-.21,.15-.31-.06,.11-.06-.05-.25,.24l.07-.22c-.03-.12-.34,.37-.38,.27,.12-.15,.15-.27,.26-.36-.02-.02-.03-.06-.09,.05,.04-.1-.19,.16-.12,0-.05,.06-.14,.21-.16,.18,.01-.03,.04-.07,.04-.07-.04,.07-.1,.07-.17,.25,.2-.5-.23-.09-.06-.52-.08,.02-.17,.03-.23,.01,.03-.04,.04-.07,.04-.05,.01-.18-.29,.4-.27,.2,.1-.26,.12-.11,.14-.21,.27-.49-.13,.01-.01-.3l.03-.02c.06-.19-.2,.13-.25,.06,0,0,.03-.04,.04-.07-.19,.22-.32,.26-.42,.29,.13-.18,.09-.09,.19-.29-.04,.01-.17,.32-.26,.34,.04-.11,.06-.23,.17-.44l.06,.02c.13-.28-.07-.03-.07-.09l.07-.12c-.1,0-.27,.29-.34,.22l-.04,.09c-.21,.27,.05-.19-.12,0l.15-.31c-.07,.05-.27,.23-.36,.25,.16-.2,.28-.28,.4-.39-.03-.02-.12-.04-.22,.1,.03-.02,.09-.09,.07-.03-.17,.21-.28,.3-.34,.26,.34-.57-.08-.23,.13-.71-.23,.15-.16-.21-.31-.25-.2,.48-.04,0-.29,.46-.04,.01-.05,0-.04-.03,0,0,0,0,0,0h0s.06-.32,.06-.32c.05-.15,.08-.09,.14-.19-.05-.07,.08-.21,.11-.36-.08,.17-.15,.23-.15,.14l-.06,.24c-.23,.2,.13-.43-.09-.24l.11-.13c-.09,.06-.17-.1-.42,.25,.02-.06,.08-.19,.12-.21-.08-.12-.46,.27-.43-.01l.07-.11s-.15,.2-.12,.07c.03-.05,.07-.11,.06-.12-.03,.03-.16,.17-.15,.09l.09-.12c-.03-.21-.34,.23-.47,.26,.18-.34,.15-.49,.13-.57l.03-.05c-.11-.11-.36,.17-.55,.24,.12-.41-.17-.28-.19-.55-.01,.07-.14,.26-.18,.29,0-.08-.2,.2-.03-.11h0c.13-.31,.04-.25,0-.29l-.21,.4c.18-.65-.42,.06-.22-.5-.08,.09-.11,.07-.19,.16l.11-.22c-.05-.1-.08-.14-.2-.14l.1-.15s-.38,.6-.44,.59l.15-.34c-.1-.04-.06-.38-.3-.13,.02-.05,.07-.14,.1-.15-.04-.03-.07-.31-.27,.15,.14-.3-.09-.08-.2,.03l.11-.21c-.18,.26-.22,.33-.31,.38,0-.03,.04-.11,.06-.13-.02-.05-.13,.19-.13,.06l.09-.13s-.07,.04-.18,.19c-.07,.07-.07-.1,.02-.3-.06,.12-.17,.27-.17,.19,.03-.08,.06-.12,.08-.14-.01-.19-.24,.2-.2-.05,.03-.07,.05-.11,.05-.14,.06,.04,.11,.07,.1,.09,.09-.2,.06-.26,.23-.52-.11,.13-.34,.43-.35,.31,0-.02,.01-.04,.03-.07l.02-.02s-.02-.01-.05,.02c0-.04,0-.07-.02-.08,.07-.17-.02-.12-.04-.14-.1,.22-.12,.17-.17,.37,0-.02,.02-.02,.04-.03,0,0,.01,0,.02-.02v.02s.04,0,.06,.02c-.07,.1-.14,.19-.11,.05-.08,.13-.16,.27-.2,.34,.11-.33,.11-.52,.19-.72-.14,.09-.23,0-.47,.38-.05,.04,.03-.13,.05-.2,.03-.04,.05-.02,.08-.08-.1,.08-.16-.02-.3,.26,0-.16,.16-.25,.05-.24l.05-.08c.05-.54-.59,.63-.5-.05,0,.04,0,.06-.03,.11-.08-.36-.52,.07-.54-.44-.02-.11-.11,.07-.2,.2l.09-.25-.18,.25c-.17,.17,.11-.65-.16-.31l-.06,.17s-.16,.04-.08-.14c-.02,.03-.08,.16-.06,.07l.05-.13-.19,.18c-.03-.12,.22-.5,.13-.57-.06,.03-.27,.32-.29,.41,.01,.01,0,.1-.04,.22l-.06,.05c-.16,.37-.35,.74-.37,1.03l.16-.2Zm3.08-.62s.02,.02,0,.07c-.01,0-.02,0-.04,.01v.03s.03-.08,.04-.11Zm-.44,1.46s-.02,.1-.04,.18c0-.01-.03-.02-.04-.03,.03-.08,.07-.15,.08-.15Zm-.15,.13h0s-.03,0-.03,0c0,0,.02,0,.04,0Z"/>
        <path class="cls-1" d="M330.24,16.69s-.01,.01-.01,.01c0,.02,0,.04-.01,.05l.04-.07h-.01Z"/>
        <path class="cls-1" d="M339.81,22.65s-.01,.02-.02,.03c0,0,.01-.02,.02-.02h0Z"/>
        <polygon class="cls-1" points="331.23 19.2 331.26 19.15 331.23 19.19 331.23 19.2"/>
        <path class="cls-1" d="M339.76,24.17s.07-.04,.09-.05h0s-.09,.05-.09,.05Z"/>
        <path class="cls-1" d="M337.16,22.3s0,0-.01,0c-.04,.03-.02,.02,.01,0Z"/>
        <path class="cls-1" d="M338.33,22.38s-.07,.06-.09,.08c0,.03,.01,.04,.09-.08Z"/>
        <polygon class="cls-1" points="336 21.94 336 21.94 336 21.93 336 21.94"/>
        <path class="cls-1" d="M338.2,22.43c-.01,.05,0,.05,.04,.03,0-.02,0-.05-.04-.03Z"/>
        <path class="cls-1" d="M339.98,24.91h-.03s0,0,0,0c.02,0,.03,0,.04,0Z"/>
        <path class="cls-1" d="M340.07,24.92h-.06s0,.01,.06,0Z"/>
        <path class="cls-1" d="M339.94,24.6s-.16,.1-.1,.11l.07-.02c-.13,.04,.18-.12,.03-.08Z"/>
        <path class="cls-1" d="M340.79,23.82l-.02,.11c.08-.05,.18-.13,.22-.1,.2-.23-.18,.11-.2,0Z"/>
        <path class="cls-1" d="M340.93,23.43c-.09,.02-.11,.02-.16,.1,.06,.02,.12-.07,.16-.1Z"/>
        <path class="cls-1" d="M339.52,22.13l.15-.17s-.06,.07-.15,.17Z"/>
        <polygon class="cls-1" points="338.55 22.82 338.49 22.95 338.63 22.8 338.55 22.82"/>
        <polygon class="cls-1" points="339.38 21.43 339.28 21.46 339.35 21.44 339.38 21.43"/>
        <path class="cls-1" d="M336.81,19.93l-.13,.24s.2-.29,.13-.24Z"/>
        <path class="cls-1" d="M335.58,19.43s-.01,.14,.02,.11c.06-.13,.07-.22-.02-.11Z"/>
        <polygon class="cls-1" points="332.57 17.32 332.49 17.37 332.51 17.39 332.57 17.32"/>
      </g>
    </g>
  </g>
</svg>