<svg width="24" height="24" viewBox="0 0 24 24" fill="none" xmlns="http://www.w3.org/2000/svg">
    <path fill-rule="evenodd" clip-rule="evenodd"
        d="M9.16669 3.25H9.2H14.8H14.8333H14.8333C16.0652 3.25 17.0357 3.24999 17.8167 3.3138C18.6134 3.3789 19.2788 3.51413 19.8835 3.82222C20.8713 4.32555 21.6744 5.1287 22.1778 6.11655C22.4859 6.7212 22.6211 7.38657 22.6862 8.18334C22.75 8.96434 22.75 9.93483 22.75 11.1668V11.2V12.8V12.8332C22.75 14.0652 22.75 15.0357 22.6862 15.8167C22.6211 16.6134 22.4859 17.2788 22.1778 17.8835C21.6744 18.8713 20.8713 19.6744 19.8835 20.1778C19.2788 20.4859 18.6134 20.6211 17.8167 20.6862C17.0357 20.75 16.0652 20.75 14.8333 20.75H14.8H9.2H9.16667C7.93477 20.75 6.96432 20.75 6.18334 20.6862C5.38657 20.6211 4.7212 20.4859 4.11655 20.1778C3.1287 19.6744 2.32555 18.8713 1.82222 17.8835C1.51413 17.2788 1.3789 16.6134 1.3138 15.8167C1.24999 15.0357 1.25 14.0652 1.25 12.8333V12.8333V12.8V11.2V11.1667V11.1667C1.25 9.93478 1.24999 8.96432 1.3138 8.18334C1.3789 7.38657 1.51413 6.7212 1.82222 6.11655C2.32555 5.1287 3.1287 4.32555 4.11655 3.82222C4.7212 3.51413 5.38657 3.3789 6.18334 3.3138C6.96432 3.24999 7.93478 3.25 9.16668 3.25H9.16669ZM5.3721 6.84882C5.01247 6.64331 4.55433 6.76826 4.34882 7.1279C4.14331 7.48753 4.26826 7.94567 4.6279 8.15118L11.1318 11.8677C11.6698 12.1751 12.3302 12.1751 12.8682 11.8677L19.3721 8.15118C19.7317 7.94567 19.8567 7.48753 19.6512 7.1279C19.4457 6.76826 18.9875 6.64331 18.6279 6.84882L12.124 10.5653C12.0472 10.6092 11.9528 10.6092 11.876 10.5653L5.3721 6.84882Z"
        fill="#FF0A78" />
</svg>