<svg width="24" height="24" viewBox="0 0 24 24" fill="none" xmlns="http://www.w3.org/2000/svg">
    <path fill-rule="evenodd" clip-rule="evenodd"
        d="M18.5095 6.24999C18.8401 5.71729 19 5.1032 19 4.5C19 3.70499 18.7222 2.89108 18.142 2.26951C17.5516 1.63693 16.6911 1.25 15.625 1.25C14.3008 1.25 13.1785 1.88298 12.4105 2.93195C12.2512 3.14951 12.1076 3.38403 11.9801 3.6338C11.2216 2.18528 9.94962 1.25 8.375 1.25C7.30891 1.25 6.44837 1.63693 5.85796 2.26951C5.27783 2.89108 5 3.70499 5 4.5C5 5.1032 5.15994 5.71729 5.49051 6.24999H4.50005L4.42677 6.24996C4.03405 6.24977 3.73105 6.24962 3.46355 6.30283C2.37265 6.51982 1.51988 7.37259 1.30289 8.46349C1.24968 8.73099 1.24983 9.03398 1.25002 9.42671L1.25005 9.49999L1.25002 9.57326C1.24983 9.96599 1.24968 10.269 1.30289 10.5365C1.51988 11.6274 2.37265 12.4802 3.46355 12.6971C3.73105 12.7504 4.03404 12.7502 4.42676 12.75H4.42677L4.50005 12.75H11.25V7V6.25H12.75V7V12.75H19.5L19.5733 12.75C19.966 12.7502 20.269 12.7504 20.5365 12.6971C21.6274 12.4802 22.4802 11.6274 22.6972 10.5365C22.7504 10.269 22.7503 9.96599 22.7501 9.57328L22.75 9.49999L22.7501 9.4267C22.7503 9.03398 22.7504 8.73099 22.6972 8.46349C22.4802 7.37259 21.6274 6.51982 20.5365 6.30283C20.269 6.24962 19.9661 6.24977 19.5733 6.24996L19.5 6.24999H18.5095ZM11.25 14.25H4C3.58579 14.25 3.25 14.5858 3.25 15V17.2V17.2321V17.2321C3.24999 18.045 3.24999 18.7006 3.29336 19.2315C3.33803 19.7781 3.43239 20.2582 3.65873 20.7025C4.01825 21.4081 4.59193 21.9817 5.29754 22.3413C5.74175 22.5676 6.2219 22.662 6.76853 22.7066C7.29944 22.75 7.95506 22.75 8.7679 22.75H8.8H11.25V22V14.25ZM12.75 22.75H15.2H15.2321C16.0449 22.75 16.7006 22.75 17.2315 22.7066C17.7781 22.662 18.2582 22.5676 18.7025 22.3413C19.4081 21.9817 19.9818 21.4081 20.3413 20.7025C20.5676 20.2582 20.662 19.7781 20.7066 19.2315C20.75 18.7006 20.75 18.045 20.75 17.2321V17.2V15C20.75 14.5858 20.4142 14.25 20 14.25H12.75V22V22.75ZM15.634 6.24999C16.3129 6.2479 16.7621 6.01058 17.0455 5.70701C17.3403 5.39108 17.5 4.95499 17.5 4.5C17.5 4.04501 17.3403 3.60892 17.0455 3.29299C16.7609 2.98807 16.3089 2.75 15.625 2.75C14.8242 2.75 14.134 3.11702 13.6208 3.81805C13.1954 4.39902 12.887 5.22153 12.7858 6.24999H15.634ZM11.2126 6.24999H8.36598C7.68711 6.2479 7.23788 6.01058 6.95454 5.70701C6.65967 5.39108 6.5 4.95499 6.5 4.5C6.5 4.04501 6.65967 3.60892 6.95454 3.29299C7.23913 2.98807 7.69109 2.75 8.375 2.75C9.64408 2.75 10.9748 3.94149 11.2126 6.24999Z"
        fill="#FF0A78" />
</svg>