<svg width="22" height="20" viewBox="0 0 22 20" fill="none" xmlns="http://www.w3.org/2000/svg">
    <path fill-rule="evenodd" clip-rule="evenodd"
        d="M0.25 4C0.25 1.92893 1.92893 0.25 4 0.25H18C20.0711 0.25 21.75 1.92893 21.75 4V10.25H21H1H0.25V4ZM0.25 11.75V12C0.25 14.0711 1.92893 15.75 4 15.75H7.84631L7.37756 18.25H6C5.58579 18.25 5.25 18.5858 5.25 19C5.25 19.4142 5.58579 19.75 6 19.75H7.98667C7.99615 19.7502 8.00559 19.7502 8.01501 19.75H13.985C13.9944 19.7502 14.0039 19.7502 14.0133 19.75H16C16.4142 19.75 16.75 19.4142 16.75 19C16.75 18.5858 16.4142 18.25 16 18.25H14.6224L14.1537 15.75H18C20.0711 15.75 21.75 14.0711 21.75 12V11.75H21H1H0.25ZM12.6276 15.75L13.0963 18.25H8.9037L9.37245 15.75H12.6276ZM14.4898 8.76229C14.7458 8.99992 15.132 9.02934 15.4211 8.83324L17.2085 7.62066C17.5512 7.38812 17.6406 6.92173 17.4081 6.57895C17.1755 6.23617 16.7091 6.1468 16.3664 6.37934L15.0728 7.25689L11.5102 3.95029C11.2337 3.69367 10.8097 3.68234 10.5199 3.92383L8.04603 5.98536L5.53033 3.46967C5.23744 3.17678 4.76256 3.17678 4.46967 3.46967C4.17678 3.76256 4.17678 4.23744 4.46967 4.53033L7.46967 7.53033C7.74396 7.80462 8.18214 7.82449 8.48014 7.57617L10.9733 5.49851L14.4898 8.76229Z"
        fill="#FF0A78" />
</svg>